<svg width="137" height="32" viewBox="0 0 137 32" fill="none" xmlns="http://www.w3.org/2000/svg">
<path d="M10.0078 15.9974C10.0078 12.6946 12.6954 10.0161 16.0131 10.0161C19.3297 10.0161 22.0184 12.6934 22.0184 15.9974C22.0184 19.3026 19.3309 21.9799 16.0143 21.9799C12.6965 21.9799 10.0078 19.3014 10.0078 15.9986" fill="#A6A6A9"/>
<path d="M16.0111 0.0481987C7.1684 0.0481987 0 7.1892 0 15.9987C0 22.6113 4.0085 28.2564 9.82853 30.7129C10.2378 30.8849 10.6801 30.964 11.1237 30.9443C11.5672 30.9246 12.0008 30.8068 12.3932 30.5992C12.7857 30.3917 13.1272 30.0996 13.393 29.7441C13.6589 29.3886 13.8426 28.9785 13.9308 28.5434C14.0668 27.8652 13.9633 27.1608 13.638 26.5503C13.3126 25.9399 12.7856 25.4612 12.1467 25.196V25.1948C8.53964 23.6886 6.00417 20.1399 6.00417 15.9987C6.00417 10.492 10.4838 6.0284 16.0123 6.0284C21.5407 6.0284 26.0215 10.492 26.0215 15.9987C26.0215 20.1387 23.486 23.6886 19.8778 25.1937V25.196C19.2388 25.4614 18.7118 25.9404 18.3866 26.5512C18.0614 27.1619 17.9583 27.8666 18.0947 28.5449C18.2311 29.2233 18.5988 29.8332 19.1348 30.2707C19.6708 30.7082 20.3421 30.9462 21.034 30.9439C21.4319 30.9415 21.8256 30.8627 22.1937 30.7118C28.0137 28.2552 32.0234 22.609 32.0234 15.9976C32.0234 7.1869 24.8538 0.0458984 16.0111 0.0458984" fill="#A6A6A9"/>
<path d="M78.481 14.2282C78.481 11.3428 76.4945 9.1973 73.3975 9.1973C70.2982 9.1973 68.3128 11.3439 68.3128 14.2293C68.3128 17.1125 70.2993 19.2614 73.3975 19.2614C76.4945 19.2614 78.481 17.1136 78.481 14.2293M63.3288 14.2293C63.3288 8.9297 67.5374 4.8365 73.3975 4.8365C79.2895 4.8365 83.465 8.9297 83.465 14.2293C83.465 19.529 79.2895 23.621 73.3975 23.621C67.5385 23.621 63.3288 19.529 63.3288 14.2293ZM81.7541 27.4591H84.4474C85.8953 27.4591 86.4008 26.9216 86.4008 25.6475V4.8423H91.3836V25.7139C91.3836 30.1089 89.5996 31.9868 84.8523 31.9868H81.753V27.4579L81.7541 27.4591ZM55.3404 15.1992C55.3404 17.395 53.1034 19.1493 50.2568 19.1493C47.0386 19.1493 45.0383 17.2589 45.0383 14.1195C45.0383 11.217 47.1735 9.2247 50.4604 9.2247C53.0702 9.2247 55.3404 11.0477 55.3404 13.1063V15.1992ZM55.5439 4.8308V6.9283H55.4753C54.1876 5.5788 52.0535 4.8354 49.5123 4.8354C44.056 4.8354 40.0234 8.8862 40.0234 14.1184C40.0234 19.5542 44.1577 23.5375 49.6816 23.5375C52.1541 23.5375 54.2219 22.7598 55.4764 21.376H55.5451V23.1853C55.5451 25.6155 53.443 27.4042 50.664 27.4042C47.862 27.4042 46.2312 26.6174 44.8153 25.269L41.5708 28.3797C43.7449 30.6785 47.0226 31.9857 50.7658 31.9857C56.46 31.9857 60.3553 28.1807 60.3553 23.1178V4.8308H55.5439ZM104.118 8.861C106.777 8.861 108.63 10.2369 108.865 12.3172H99.3023C99.5722 10.2369 101.425 8.861 104.118 8.861ZM104.633 19.5953C101.646 19.5953 99.2977 17.6717 99.236 15.8053H113.715V14.3975C113.715 9.0635 110.01 4.8365 104.016 4.8365C98.3599 4.8365 94.3194 8.7959 94.3194 14.2636C94.3194 19.8984 98.5818 23.621 104.847 23.621C108.685 23.621 111.438 21.7877 112.874 20.0322L109.497 17.674C107.995 19.0704 106.631 19.5953 104.633 19.5953ZM116.65 0H121.461L121.487 12.3172H121.552L129.606 4.7942H136.054L127.707 12.6637L136.02 23.6061H130.263L124.554 15.6978H124.489L121.461 18.5558V23.6199H116.65V0Z" fill="#A6A6A9"/>
</svg>
