<svg width="148" height="32" viewBox="0 0 148 32" fill="none" xmlns="http://www.w3.org/2000/svg">
<mask id="mask0_9_206" style="mask-type:luminance" maskUnits="userSpaceOnUse" x="0" y="0" width="149" height="32">
<path d="M148.003 0H0.94397V32H148.003V0Z" fill="white"/>
</mask>
<g mask="url(#mask0_9_206)">
<path fill-rule="evenodd" clip-rule="evenodd" d="M79.622 22.2706C78.023 23.8945 76.112 24.7107 73.896 24.7107C72.104 24.7107 70.581 24.3449 69.027 23.4408V19.7184C70.277 20.5673 71.848 21.3757 73.397 21.3757C76.629 21.3757 78.553 19.1485 78.553 15.9923C78.553 12.8335 76.563 10.5401 73.33 10.5401C71.886 10.5401 70.715 11.0599 69.801 12.1018C68.821 13.2305 68.314 14.8438 68.314 16.9768V31.6757H68.071C66.289 31.6757 64.846 30.2305 64.846 28.4471V16.425C64.846 11.3235 67.96 7.2044 73.314 7.2044C75.957 7.2044 78.104 8.1096 79.732 9.928C81.263 11.6268 82.021 13.7794 82.021 16.3699C82.021 18.675 81.221 20.6456 79.622 22.2706ZM117.173 22.146C115.582 23.8574 113.533 24.7107 111.049 24.7107C108.427 24.7107 106.291 23.8055 104.665 21.9875C103.135 20.2677 102.376 18.1132 102.376 15.5463C102.376 11.0022 105.879 7.2044 110.489 7.2044C112.266 7.2044 113.81 7.5805 115.37 8.4368V12.1982C114.12 11.3489 112.549 10.5404 111 10.5404C107.768 10.5404 105.844 12.7673 105.844 15.9246C105.844 19.039 107.88 21.3761 111.066 21.3761C112.509 21.3761 113.697 20.8346 114.648 19.7438C115.593 18.6603 116.083 17.068 116.083 14.9291V3.2287C116.083 1.4449 117.528 0 119.308 0H119.552V15.4776C119.552 18.2033 118.764 20.4346 117.173 22.146ZM126.968 5.5526C126.604 5.9607 126.082 6.1485 125.446 6.1485C124.254 6.1485 123.403 5.2695 123.403 4.0864C123.403 2.8757 124.239 2.0585 125.445 2.0585C126.606 2.0585 127.488 2.9202 127.488 4.0864C127.488 4.6636 127.319 5.1581 126.968 5.5526ZM144.59 14.9287C144.59 13.5596 144.073 12.4757 143.034 11.6548C142.097 10.9158 140.928 10.5401 139.505 10.5401C136.366 10.5401 134.351 12.9971 134.351 16.0268C134.351 18.9423 136.487 21.3757 139.472 21.3757C141.549 21.3757 142.659 20.1614 143.843 18.6485V23.0103C143.24 23.4629 142.546 23.9563 141.838 24.246C141.09 24.5585 140.198 24.7107 139.167 24.7107C134.175 24.7107 130.883 20.571 130.883 15.7868C130.883 13.3302 131.645 11.2993 133.179 9.7155C134.807 8.0371 136.943 7.2044 139.557 7.2044C144.513 7.2044 148.059 10.0541 148.059 15.2029V24.3677H147.816C146.034 24.3677 144.59 22.9221 144.59 21.1382V14.9287ZM97.112 13.9449C96.674 12.5879 96.124 11.9199 94.861 11.2132C91.855 9.532 88.897 10.9632 87.521 13.932L97.112 13.9449ZM94.465 24.6596C92.25 25.1309 90.076 24.7673 87.956 23.5805C85.887 22.4239 84.501 20.7037 83.807 18.4305C82.403 13.8331 85.279 8.7099 89.905 7.4695C92.198 6.8548 94.396 7.1331 96.485 8.3015C99.954 10.2434 101.218 13.2467 100.997 17.1166L87.025 17.0886C87.23 18.6669 88.208 19.9018 89.582 20.6699C90.974 21.4493 92.254 21.6353 93.442 21.2666C94.762 20.8518 95.832 19.7739 96.702 18.7702L99.55 20.8478C98.388 22.9287 96.807 24.1603 94.465 24.6596ZM123.711 7.5482H127.179V24.3673H126.935C125.155 24.3673 123.711 22.9217 123.711 21.1379V7.5482ZM6.07599 24.3673C2.68399 24.3673 1 22.0574 1 18.8305V6.5916C1 4.8085 2.44398 3.3625 4.22598 3.3625H4.46899V7.5485H10.329V10.8838H4.46899V19.2177C4.46899 20.6349 5.101 21.0327 6.453 21.0327H10.329V24.368L6.07599 24.3673ZM26.218 22.2412C24.505 23.886 22.446 24.7103 20.053 24.7103C17.683 24.7103 15.635 23.8853 13.922 22.2412C12.203 20.5904 11.346 18.4893 11.346 15.9577C11.346 11.018 15.112 7.2048 20.053 7.2048C22.424 7.2048 24.478 8.0357 26.201 9.6919C27.931 11.353 28.796 13.4478 28.796 15.9577C28.796 18.4893 27.937 20.5901 26.218 22.2412ZM42.434 11.5952C41.925 12.4496 41.531 13.0621 41.253 13.4324C40.947 13.8349 40.645 14.1566 40.346 14.3787C42.756 15.1581 43.654 16.8302 43.654 19.321V24.3673H43.411C41.629 24.3673 40.185 22.9217 40.185 21.1379V19.6632C40.185 18.0504 39.463 16.9563 37.756 16.9563H34.607V24.3673H34.363C32.582 24.3673 31.139 22.9217 31.139 21.1379V3.2287C31.139 1.4449 32.582 0 34.363 0H34.607V13.5871H35.632C36.758 13.5871 37.498 13.2011 37.923 12.4713L40.836 7.5489L44.789 7.5452L42.434 11.5952ZM60.338 22.2416C58.624 23.8864 56.564 24.7107 54.172 24.7107C51.802 24.7107 49.754 23.8857 48.04 22.2416C46.321 20.5908 45.464 18.4897 45.464 15.9581C45.464 11.0184 49.232 7.2052 54.172 7.2052C56.543 7.2052 58.596 8.036 60.321 9.6923C62.051 11.3533 62.914 13.4482 62.914 15.9581C62.914 18.4897 62.057 20.5904 60.338 22.2416ZM57.834 12.0438C56.878 11.0427 55.664 10.5401 54.172 10.5401C50.98 10.5401 49.069 12.8699 49.069 15.9581C49.069 19.0033 51.026 21.3757 54.172 21.3757C57.319 21.3757 59.275 19.0033 59.275 15.9581C59.275 14.3412 58.789 13.0438 57.834 12.0438ZM23.715 12.0438C22.76 11.0427 21.546 10.5401 20.054 10.5401C16.862 10.5401 14.951 12.8699 14.951 15.9581C14.951 19.0033 16.907 21.3757 20.053 21.3757C23.2 21.3757 25.155 19.0033 25.155 15.9581C25.155 14.3412 24.671 13.0438 23.715 12.0438Z" fill="#A6A6A9"/>
</g>
</svg>
