<svg xmlns="http://www.w3.org/2000/svg" version="1.1" xmlns:xlink="http://www.w3.org/1999/xlink" xmlns:svgjs="http://svgjs.dev/svgjs" viewBox="0 0 800 800" opacity="0.18"><defs><filter id="bbburst-blur-1" x="-100%" y="-100%" width="400%" height="400%"><feGaussianBlur in="SourceGraphic" stdDeviation="1"></feGaussianBlur></filter><filter id="bbburst-blur-2" x="-100%" y="-100%" width="400%" height="400%"><feGaussianBlur in="SourceGraphic" stdDeviation="2"></feGaussianBlur></filter><filter id="bbburst-blur-3" x="-100%" y="-100%" width="400%" height="400%"><feGaussianBlur in="SourceGraphic" stdDeviation="4"></feGaussianBlur></filter><filter id="bbburst-blur-4" x="-100%" y="-100%" width="400%" height="400%"><feGaussianBlur in="SourceGraphic" stdDeviation="12"></feGaussianBlur></filter><symbol id="bbburst-shape-7" viewBox="0 0 139 124"><path fill-rule="evenodd" clip-rule="evenodd" d="M70.1641 15.0917C54.6093.764854 37.8293-2.10782 24.4032 2.82615 10.3804 7.97941.763366 21.4591 1.00047 37.0608c.1068 7.0273 2.86132 13.7317 7.0039 20.2001C12.1442 63.7249 17.853 70.2322 24.25 76.9024c3.8209 3.9842 7.8871 8.0312 12.0767 12.201h.0001c10.0335 9.9862 20.7748 20.6766 30.5497 32.8956 1.38 1.725 3.8972 2.005 5.6223.624.6706-.536 1.1228-1.244 1.3439-2.011 9.5768-11.748 20.0328-22.0735 29.8163-31.7351 4.19-4.1373 8.256-8.1528 12.078-12.1062 6.396-6.6176 12.106-13.0752 16.247-19.4911 4.144-6.4196 6.905-13.0811 7.012-20.0691.237-15.5124-9.399-28.8902-23.411-33.99923-13.32-4.85681-29.9542-2.08621-45.4209 11.88043Zm-3.7351 7.4919C52.1278 8.44857 37.6826 6.46918 27.1626 10.3352 16.2859 14.3323 8.8148 24.7824 8.99955 36.9392c.07575 4.9844 2.03755 10.2234 5.74165 16.0072 3.707 5.7881 8.9752 11.8418 15.2827 18.4187 3.5798 3.7328 7.4978 7.6329 11.6 11.7163 9.0476 9.0063 18.9911 18.9046 28.1786 29.8666 9.2999-11.068 19.4036-21.0473 28.5839-30.1144l.0007-.0006c4.1019-4.0508 8.0189-7.9196 11.5979-11.6222 6.307-6.5252 11.573-12.5298 15.278-18.2697 3.703-5.7362 5.658-10.924 5.734-15.8531.184-12.0276-7.267-22.3914-18.153-26.3608-10.71-3.90518-25.4722-1.80041-40.0023 12.867-1.5547 1.5694-4.0874 1.5813-5.6568.0265-.3146-.3116-.5666-.6625-.7559-1.0371Z"></path></symbol><symbol id="bbburst-shape-10" viewBox="0 0 145 145"><circle cx="72.5" cy="72.5" r="61.5" fill="none" stroke-width="22"></circle></symbol><symbol id="bbburst-shape-11" viewBox="0 0 194 167"><path d="M10.398 161 97 11l86.603 150H10.397Z" stroke-width="11"></path></symbol><symbol id="bbburst-shape-12" viewBox="0 0 170 151"><path d="M69.3728 54.2122 85 10.0031l15.627 44.2091c1.413 3.9958 5.19 6.6672 9.428 6.6673h49.312l-39.149 26.1447c-3.803 2.5401-5.399 7.3367-3.875 11.6488l15.179 42.94-40.9683-27.36c-3.3621-2.245-7.7453-2.245-11.1074 0l-40.9682 27.36 15.1785-42.94c1.5243-4.3121-.0712-9.1087-3.8746-11.6488L10.6333 60.8795h49.3112c4.2381-.0001 8.0159-2.6715 9.4283-6.6673Z" stroke-width="12"></path></symbol><symbol id="bbburst-shape-13" viewBox="0 0 159 159"><path stroke-width="22" d="M11 11h137v137H11z"></path></symbol></defs><use xlink:href="#bbburst-shape-11" width="42.322880724054386" opacity="0.08848741879963684" transform="matrix(1.406261839543508,1.0415985976582862,-1.0415985976582862,1.406261839543508,551.8050096587458,-521.0515681245301)" fill="none" stroke="#f0db4f" filter="url(#bbburst-blur-4)"></use><use xlink:href="#bbburst-shape-10" width="43.03692462302984" opacity="0.581523686437214" transform="matrix(0.9713048781454771,0.23783783065525943,-0.23783783065525943,0.9713048781454771,385.3654271473325,-159.665873394855)" fill="none" stroke="#ee0000" filter="url(#bbburst-blur-1)"></use><use xlink:href="#bbburst-shape-13" width="40.28868144242067" opacity="0.6061245095455783" transform="matrix(0.9792186013380317,-0.2028076201566127,0.2028076201566127,0.9792186013380317,222.1801589116904,172.05662054304992)" fill="none" stroke="#f0db4f" filter="url(#bbburst-blur-1)"></use><use xlink:href="#bbburst-shape-10" width="42.26490931564162" opacity="0.1144899723432794" transform="matrix(0.9554645462843608,-0.8059699130821325,0.8059699130821325,0.9554645462843608,249.35286308942796,384.0568062776376)" fill="none" stroke="#1e63ed" filter="url(#bbburst-blur-3)"></use><use xlink:href="#bbburst-shape-12" width="48.792653324638955" opacity="0.38759346025181307" transform="matrix(0.9919346840094084,0.12675007952326897,-0.12675007952326897,0.9919346840094084,290.60796336236393,239.78802579955703)" fill="none" stroke="#f0db4f" filter="url(#bbburst-blur-2)"></use><use xlink:href="#bbburst-shape-10" width="27.603909262751554" opacity="0.8766329819884899" transform="matrix(0.7803524914993639,-0.6253398987836416,0.6253398987836416,0.7803524914993639,171.80436891941184,141.3445891596093)" fill="none" stroke="#f0db4f"></use><use xlink:href="#bbburst-shape-13" width="33.0823312570589" opacity="0.35635904970865684" transform="matrix(0.7889896659138025,-0.6144064673172202,0.6144064673172202,0.7889896659138025,-95.5926754314157,261.3783507634714)" fill="none" stroke="#ee0000" filter="url(#bbburst-blur-2)"></use><use xlink:href="#bbburst-shape-13" width="47.10277384191318" opacity="0.486750189799791" transform="matrix(0.9661009022231696,0.25816476661926163,-0.25816476661926163,0.9661009022231696,255.0482075636844,57.572593808252805)" fill="none" stroke="#ee0000" filter="url(#bbburst-blur-2)"></use><use xlink:href="#bbburst-shape-13" width="38.25840988020219" opacity="-0.0725990839622268" transform="matrix(1.6989857887422775,-0.41946071288236475,0.41946071288236475,1.6989857887422775,-145.1377257982733,-609.2776360953756)" fill="none" stroke="#ee0000" filter="url(#bbburst-blur-4)"></use><use xlink:href="#bbburst-shape-13" width="54.658156240108276" opacity="0.10794889495079851" transform="matrix(1.491533818387747,0.9153288308611655,-0.9153288308611655,1.491533818387747,373.7011978796942,-28.056946385377955)" fill="none" stroke="#1e63ed" filter="url(#bbburst-blur-4)"></use><use xlink:href="#bbburst-shape-12" width="48.64068651080718" opacity="0.22227241610377713" transform="matrix(1.0312545934989619,0.7064092039231162,-0.7064092039231162,1.0312545934989619,1007.0811268767563,-47.35097046328826)" fill="none" stroke="#f0db4f" filter="url(#bbburst-blur-3)"></use><use xlink:href="#bbburst-shape-12" width="25.042807873854052" opacity="0.8582491777476873" transform="matrix(0.9201201452849914,-0.3916362064987432,0.3916362064987432,0.9201201452849914,168.39292772555436,43.71382230667024)" fill="none" stroke="#1e63ed"></use><use xlink:href="#bbburst-shape-13" width="40.589351467198114" opacity="0.29752867451400333" transform="matrix(1.2486924473954932,-0.057159179642935806,0.057159179642935806,1.2486924473954932,79.22715160472255,-258.42286773485284)" fill="none" stroke="#ee0000" filter="url(#bbburst-blur-3)"></use><use xlink:href="#bbburst-shape-11" width="42.24887758992219" opacity="0.5568563065674987" transform="matrix(0.929080463231112,0.3698776728085412,-0.3698776728085412,0.929080463231112,370.3352232623155,141.4645071836506)" fill="none" stroke="#f0db4f" filter="url(#bbburst-blur-1)"></use><use xlink:href="#bbburst-shape-11" width="58.71508734412892" opacity="-0.04867396444787242" transform="matrix(1.3437361086291366,1.1211035948413621,-1.1211035948413621,1.3437361086291366,1142.8850829461385,-505.7506358668821)" fill="none" stroke="#f0db4f" filter="url(#bbburst-blur-4)"></use><use xlink:href="#bbburst-shape-13" width="55.15792135208636" opacity="-0.042636890113485926" transform="matrix(1.7360765145928778,-0.2203141744850867,0.2203141744850867,1.7360765145928778,602.6692183032692,36.35445151241606)" fill="none" stroke="#0ce449" filter="url(#bbburst-blur-4)"></use><use xlink:href="#bbburst-shape-11" width="34.105851617833665" opacity="0.45593206997681823" transform="matrix(0.7148197518892314,-0.6993087460550008,0.6993087460550008,0.7148197518892314,266.33645511612167,-60.86881386583383)" fill="none" stroke="#f0db4f" filter="url(#bbburst-blur-2)"></use><use xlink:href="#bbburst-shape-10" width="36.79215877667083" opacity="0.1935297084066976" transform="matrix(0.9386160776032794,0.8255300472209565,-0.8255300472209565,0.9386160776032794,355.86573437634695,-55.43378434594791)" fill="none" stroke="#0ce449" filter="url(#bbburst-blur-3)"></use><use xlink:href="#bbburst-shape-10" width="33.47444222340575" opacity="0.7650057419839271" transform="matrix(0.9216936953159117,-0.3879184605234705,0.3879184605234705,0.9216936953159117,242.6954135154031,-67.0938584264768)" fill="none" stroke="#ee0000" filter="url(#bbburst-blur-1)"></use><use xlink:href="#bbburst-shape-11" width="38.37030503717478" opacity="0.21896518133534748" transform="matrix(1.1637388057885008,-0.45630252234888435,0.45630252234888435,1.1637388057885008,215.59969203763288,-408.1738786739251)" fill="none" stroke="#0ce449" filter="url(#bbburst-blur-3)"></use><use xlink:href="#bbburst-shape-10" width="32.225029198997696" opacity="0.8347915344164222" transform="matrix(0.9307380335507348,-0.3656866321074798,0.3656866321074798,0.9307380335507348,308.2647437636725,7.295603827895263)" fill="none" stroke="#0ce449"></use><use xlink:href="#bbburst-shape-11" width="46.19447674493329" opacity="0.43668763975440283" transform="matrix(0.7264946212365839,-0.6871721511486859,0.6871721511486859,0.7264946212365839,68.6293006884024,-125.58212559826657)" fill="none" stroke="#1e63ed" filter="url(#bbburst-blur-2)"></use><use xlink:href="#bbburst-shape-10" width="48.23000761953308" opacity="0.48714794239283166" transform="matrix(0.7313334646915572,-0.6820200608649593,0.6820200608649593,0.7313334646915572,259.7196652556326,299.1614208694166)" fill="none" stroke="#1e63ed" filter="url(#bbburst-blur-2)"></use><use xlink:href="#bbburst-shape-11" width="48.495656747844485" opacity="0.4559716472530124" transform="matrix(0.8661667368610712,-0.49975512399118427,0.49975512399118427,0.8661667368610712,423.5948904270622,65.74104586721768)" fill="none" stroke="#f0db4f" filter="url(#bbburst-blur-2)"></use><use xlink:href="#bbburst-shape-11" width="39.59813196789682" opacity="0.7582876761484021" transform="matrix(0.9764175966147791,0.21589042827559177,-0.21589042827559177,0.9764175966147791,394.1351045472377,-75.97571154669276)" fill="none" stroke="#f0db4f" filter="url(#bbburst-blur-1)"></use><use xlink:href="#bbburst-shape-13" width="38.25630274543073" opacity="0.16742635553051222" transform="matrix(1.1183316838442197,-0.5584212074323041,0.5584212074323041,1.1183316838442197,-103.61296677189304,234.2066297363716)" fill="none" stroke="#ee0000" filter="url(#bbburst-blur-3)"></use><use xlink:href="#bbburst-shape-11" width="36.917845420818125" opacity="0.36030430819518444" transform="matrix(0.8340450680289218,0.5516963154640705,-0.5516963154640705,0.8340450680289218,700.8622375327551,-215.822985551234)" fill="none" stroke="#ee0000" filter="url(#bbburst-blur-2)"></use><use xlink:href="#bbburst-shape-12" width="47.997793370253916" opacity="0.2337856681123508" transform="matrix(1.081252791246894,-0.6272100138078157,0.6272100138078157,1.081252791246894,-214.71967495836435,51.40647470079756)" fill="none" stroke="#0ce449" filter="url(#bbburst-blur-3)"></use><use xlink:href="#bbburst-shape-10" width="33.716623533928605" opacity="0.6446132530131887" transform="matrix(0.9333820711701931,-0.3588842560186231,0.3588842560186231,0.9333820711701931,366.7410395023553,-65.75133060937992)" fill="none" stroke="#ee0000" filter="url(#bbburst-blur-1)"></use><use xlink:href="#bbburst-shape-13" width="42.40860070826809" opacity="0.19416115270201284" transform="matrix(1.195766023862309,0.3642027130274072,-0.3642027130274072,1.195766023862309,409.90839280509374,-431.43710283420603)" fill="none" stroke="#f0db4f" filter="url(#bbburst-blur-3)"></use><use xlink:href="#bbburst-shape-13" width="34.00257720466237" opacity="0.7066819450706722" transform="matrix(0.9028594591917676,-0.42993580561282513,0.42993580561282513,0.9028594591917676,88.0752495131062,89.71869641509022)" fill="none" stroke="#ee0000" filter="url(#bbburst-blur-1)"></use><use xlink:href="#bbburst-shape-11" width="28.35542932600821" opacity="0.19844539567292885" transform="matrix(1.1624612698503478,-0.45954738177680526,0.45954738177680526,1.1624612698503478,227.4743721329562,300.7216937085594)" fill="none" stroke="#1e63ed" filter="url(#bbburst-blur-3)"></use><use xlink:href="#bbburst-shape-13" width="41.835460115944436" opacity="0.2217265403184734" transform="matrix(0.9290599280698002,0.8362700820039766,-0.8362700820039766,0.9290599280698002,960.4619445133035,-238.99891041731553)" fill="none" stroke="#f0db4f" filter="url(#bbburst-blur-3)"></use><use xlink:href="#bbburst-shape-11" width="34.15007523357387" opacity="0.7856853348700196" transform="matrix(0.8934255268642626,-0.4492113399585041,0.4492113399585041,0.8934255268642626,173.30893999439613,141.0406413176367)" fill="none" stroke="#0ce449"></use><use xlink:href="#bbburst-shape-10" width="48.85798979004751" opacity="0.3978219563326548" transform="matrix(0.9405040734044406,0.3397824125961416,-0.3397824125961416,0.9405040734044406,760.2228147675341,-95.31798811918611)" fill="none" stroke="#0ce449" filter="url(#bbburst-blur-2)"></use><use xlink:href="#bbburst-shape-10" width="44.19013107286179" opacity="0.1429029693599979" transform="matrix(1.2396180913349761,-0.1607699836257711,0.1607699836257711,1.2396180913349761,150.09184826788976,259.45626915649854)" fill="none" stroke="#f0db4f" filter="url(#bbburst-blur-3)"></use><use xlink:href="#bbburst-shape-13" width="42.536570908887384" opacity="0.36098991753380616" transform="matrix(0.9787568066499238,-0.20502466543429262,0.20502466543429262,0.9787568066499238,260.4050653401755,298.0519190328766)" fill="none" stroke="#ee0000" filter="url(#bbburst-blur-2)"></use><use xlink:href="#bbburst-shape-13" width="47.34021996466354" opacity="0.4085947727958721" transform="matrix(0.9902349786026833,0.139408346779321,-0.139408346779321,0.9902349786026833,169.29210683789432,-39.89630519147653)" fill="none" stroke="#ee0000" filter="url(#bbburst-blur-2)"></use><use xlink:href="#bbburst-shape-13" width="39.07887666718279" opacity="0.13109009296131313" transform="matrix(0.9613337869667681,0.7989601679909535,-0.7989601679909535,0.9613337869667681,1049.291424131648,-177.46429042480722)" fill="none" stroke="#1e63ed" filter="url(#bbburst-blur-3)"></use><use xlink:href="#bbburst-shape-13" width="36.75413950422655" opacity="0.6397841913550866" transform="matrix(0.9799024401979638,-0.1994773362918104,0.1994773362918104,0.9799024401979638,145.65735633834578,-30.360035762816835)" fill="none" stroke="#0ce449" filter="url(#bbburst-blur-1)"></use><use xlink:href="#bbburst-shape-7" width="41.18217352638712" opacity="0.36142337262233004" transform="matrix(0.9116720744220687,-0.4109185183451363,0.4109185183451363,0.9116720744220687,481.9596052421192,154.40056397048494)" fill="#0ce449" filter="url(#bbburst-blur-2)"></use><use xlink:href="#bbburst-shape-11" width="38.825895145340226" opacity="0.5887378625824369" transform="matrix(0.9754312451795768,0.2203040760572083,-0.2203040760572083,0.9754312451795768,511.98493134638863,-175.0144809036229)" fill="none" stroke="#0ce449" filter="url(#bbburst-blur-1)"></use><use xlink:href="#bbburst-shape-7" width="30.45297007014645" opacity="0.7111442683915915" transform="matrix(0.7846262215236652,-0.6199691060831146,0.6199691060831146,0.7846262215236652,219.50711023689172,198.4622315263398)" fill="#1e63ed" filter="url(#bbburst-blur-1)"></use><use xlink:href="#bbburst-shape-11" width="53.47601099839369" opacity="0.23628992601176235" transform="matrix(0.9538242504028017,-0.8079104525524679,0.8079104525524679,0.9538242504028017,299.77189179862285,276.2896791475558)" fill="none" stroke="#f0db4f" filter="url(#bbburst-blur-3)"></use><use xlink:href="#bbburst-shape-10" width="36.3431974544862" opacity="0.5838093914934861" transform="matrix(0.853692230857474,0.5207778556866538,-0.5207778556866538,0.853692230857474,614.4813528462316,235.0860862736384)" fill="none" stroke="#ee0000" filter="url(#bbburst-blur-1)"></use><use xlink:href="#bbburst-shape-12" width="34.90179565511004" opacity="0.12597938242199713" transform="matrix(1.1893947914203686,0.3844997140988504,-0.3844997140988504,1.1893947914203686,709.2383278851546,-434.19094061745193)" fill="none" stroke="#1e63ed" filter="url(#bbburst-blur-3)"></use><use xlink:href="#bbburst-shape-11" width="38.59371381818935" opacity="0.33458721863518615" transform="matrix(0.9182580562381415,0.39598250233280535,-0.39598250233280535,0.9182580562381415,363.11497530399504,-216.3674226271749)" fill="none" stroke="#0ce449" filter="url(#bbburst-blur-2)"></use><use xlink:href="#bbburst-shape-10" width="44.26908527130604" opacity="-0.06321966386728817" transform="matrix(1.6050491960785083,0.6973643797669439,-0.6973643797669439,1.6050491960785083,309.8456776165797,85.53475620998302)" fill="none" stroke="#f0db4f" filter="url(#bbburst-blur-4)"></use><use xlink:href="#bbburst-shape-7" width="38.806662637552314" opacity="0.35948946895643263" transform="matrix(0.7790788262206736,0.6269259785131076,-0.6269259785131076,0.7790788262206736,737.9857755408482,345.5209642515018)" fill="#f0db4f" filter="url(#bbburst-blur-2)"></use><use xlink:href="#bbburst-shape-11" width="32.91592563443603" opacity="0.5844927373993454" transform="matrix(0.9842835018713139,0.176595549049072,-0.176595549049072,0.9842835018713139,624.6392659620145,80.53983008325497)" fill="none" stroke="#1e63ed" filter="url(#bbburst-blur-1)"></use><use xlink:href="#bbburst-shape-13" width="45.079503186005056" opacity="0.501578758556154" transform="matrix(0.9958997233943553,-0.09046403121156321,0.09046403121156321,0.9958997233943553,157.32706405678707,-124.52025792584527)" fill="none" stroke="#1e63ed" filter="url(#bbburst-blur-2)"></use><use xlink:href="#bbburst-shape-7" width="36.290778536351525" opacity="0.14029465296121202" transform="matrix(1.1964644582854804,0.3619016441792327,-0.3619016441792327,1.1964644582854804,878.1296656976826,68.00994628659998)" fill="#1e63ed" filter="url(#bbburst-blur-3)"></use><use xlink:href="#bbburst-shape-11" width="31.35957649181249" opacity="0.943234455042985" transform="matrix(0.7886333109416103,-0.6148638067680301,0.6148638067680301,0.7886333109416103,137.25061302917777,68.67036765323684)" fill="none" stroke="#1e63ed"></use><use xlink:href="#bbburst-shape-12" width="46.73936555196457" opacity="0.09484465669807196" transform="matrix(1.6965520980719768,0.42919806444993863,-0.42919806444993863,1.6965520980719768,186.1648106335289,-503.8779373437766)" fill="none" stroke="#f0db4f" filter="url(#bbburst-blur-4)"></use><use xlink:href="#bbburst-shape-7" width="29.68332302970913" opacity="0.6730283356979045" transform="matrix(0.7560112131646384,0.6545586647271059,-0.6545586647271059,0.7560112131646384,797.4150155185495,79.2092509428249)" fill="#1e63ed" filter="url(#bbburst-blur-1)"></use></svg>